<?xml version="1.0" encoding="UTF-8"?>
<svg width="170px" height="176px" viewBox="0 0 170 176" version="1.1" xmlns="http://www.w3.org/2000/svg" xmlns:xlink="http://www.w3.org/1999/xlink">
    <title>Group</title>
    <g id="Page-1" stroke="none" stroke-width="1" fill="none" fill-rule="evenodd">
        <g id="Group" transform="translate(-0, 0)" fill="#D8D8D8">
            <polygon id="Path" points="0 50.0340665 85.0892604 99.0598154 169.807535 50.0340665 169.807535 125.906808 85.0892604 175.229345 0 125.906808"></polygon>
            <path d="M154.915315,40.033 L158.813315,42.389 L76.8653155,90.181 L72.8823155,87.874 L154.915315,40.033 Z M140.743315,31.467 L144.640315,33.823 L62.3843155,81.795 L58.4013155,79.488 L140.743315,31.467 Z M127.412315,23.409 L131.310315,25.766 L48.7633155,73.907 L44.7803155,71.6 L127.412315,23.409 Z M114.081315,15.352 L117.980315,17.708 L35.1423155,66.019 L31.1593155,63.712 L114.081315,15.352 Z M100.750315,7.294 L104.649315,9.651 L21.5213155,58.13 L17.5383155,55.823 L100.750315,7.294 Z M88.6823155,0 L92.5803155,2.356 L9.19031547,50.989 L5.20731547,48.682 L88.6823155,0 Z" id="Combined-Shape" fill-rule="nonzero"></path>
        </g>
    </g>
</svg>